<svg xmlns="http://www.w3.org/2000/svg" xmlns:xlink="http://www.w3.org/1999/xlink" width="500" zoomAndPan="magnify" viewBox="0 0 375 374.999991" height="500" preserveAspectRatio="xMidYMid meet" version="1.0"><defs><g/><clipPath id="6c67648eca"><path d="M 37.5 37.5 L 337.5 37.5 L 337.5 337.5 L 37.5 337.5 Z M 37.5 37.5 " clip-rule="nonzero"/></clipPath><clipPath id="42450e2706"><path d="M 187.5 37.5 C 104.65625 37.5 37.5 104.65625 37.5 187.5 C 37.5 270.34375 104.65625 337.5 187.5 337.5 C 270.34375 337.5 337.5 270.34375 337.5 187.5 C 337.5 104.65625 270.34375 37.5 187.5 37.5 Z M 187.5 37.5 " clip-rule="nonzero"/></clipPath><clipPath id="1f17e718fe"><path d="M 91.289062 91.289062 L 283.710938 91.289062 L 283.710938 283.710938 L 91.289062 283.710938 Z M 91.289062 91.289062 " clip-rule="nonzero"/></clipPath><clipPath id="1272533856"><path d="M 187.5 91.289062 C 134.363281 91.289062 91.289062 134.363281 91.289062 187.5 C 91.289062 240.636719 134.363281 283.710938 187.5 283.710938 C 240.636719 283.710938 283.710938 240.636719 283.710938 187.5 C 283.710938 134.363281 240.636719 91.289062 187.5 91.289062 Z M 187.5 91.289062 " clip-rule="nonzero"/></clipPath><clipPath id="8eea463ec3"><path d="M 91.289062 91.289062 L 284.039062 91.289062 L 284.039062 284.039062 L 91.289062 284.039062 Z M 91.289062 91.289062 " clip-rule="nonzero"/></clipPath><clipPath id="8c9262712a"><path d="M 187.664062 91.289062 C 134.441406 91.289062 91.289062 134.441406 91.289062 187.664062 C 91.289062 240.890625 134.441406 284.039062 187.664062 284.039062 C 240.890625 284.039062 284.039062 240.890625 284.039062 187.664062 C 284.039062 134.441406 240.890625 91.289062 187.664062 91.289062 Z M 187.664062 91.289062 " clip-rule="nonzero"/></clipPath><clipPath id="9dcac9fded"><path d="M 53.550781 165.507812 L 75.300781 165.507812 L 75.300781 187.257812 L 53.550781 187.257812 Z M 53.550781 165.507812 " clip-rule="nonzero"/></clipPath><clipPath id="bb6f204edd"><path d="M 304.761719 165.507812 L 326.511719 165.507812 L 326.511719 187.257812 L 304.761719 187.257812 Z M 304.761719 165.507812 " clip-rule="nonzero"/></clipPath></defs><g clip-path="url(#6c67648eca)"><g clip-path="url(#42450e2706)"><path fill="#f6f6f6" d="M 37.5 37.5 L 337.5 37.5 L 337.5 337.5 L 37.5 337.5 Z M 37.5 37.5 " fill-opacity="1" fill-rule="nonzero"/><path stroke-linecap="butt" transform="matrix(0.75, 0, 0, 0.75, 37.500002, 37.499998)" fill="none" stroke-linejoin="miter" d="M 200.00001 0.00000328333 C 89.54167 0.00000328333 -0.00000271667 89.541676 -0.00000271667 200.000016 C -0.00000271667 310.458357 89.54167 400.00003 200.00001 400.00003 C 310.458351 400.00003 400.000024 310.458357 400.000024 200.000016 C 400.000024 89.541676 310.458351 0.00000328333 200.00001 0.00000328333 Z M 200.00001 0.00000328333 " stroke="#000000" stroke-width="4" stroke-opacity="1" stroke-miterlimit="4"/></g></g><g clip-path="url(#1f17e718fe)"><g clip-path="url(#1272533856)"><path fill="#f4c524" d="M 91.289062 91.289062 L 283.710938 91.289062 L 283.710938 283.710938 L 91.289062 283.710938 Z M 91.289062 91.289062 " fill-opacity="1" fill-rule="nonzero"/></g></g><g clip-path="url(#8eea463ec3)"><g clip-path="url(#8c9262712a)"><path stroke-linecap="butt" transform="matrix(0.751325, 0, 0, 0.751325, 91.290899, 91.290894)" fill="none" stroke-linejoin="miter" d="M 128.271007 -0.0024377 C 57.427377 -0.0024377 -0.00244369 57.427383 -0.00244369 128.271013 C -0.00244369 199.114643 57.427377 256.544464 128.271007 256.544464 C 199.114637 256.544464 256.544458 199.114643 256.544458 128.271013 C 256.544458 57.427383 199.114637 -0.0024377 128.271007 -0.0024377 Z M 128.271007 -0.0024377 " stroke="#000000" stroke-width="4" stroke-opacity="1" stroke-miterlimit="4"/></g></g><g clip-path="url(#9dcac9fded)"><path fill="#000000" d="M 64.425781 165.507812 C 63.367188 174.464844 62.507812 175.324219 53.550781 176.382812 C 53.570312 176.386719 53.585938 176.390625 53.605469 176.390625 C 62.507812 177.449219 63.367188 178.320312 64.425781 187.257812 C 65.484375 178.304688 66.34375 177.445312 75.300781 176.382812 C 66.34375 175.324219 65.484375 174.464844 64.425781 165.507812 Z M 64.425781 165.507812 " fill-opacity="1" fill-rule="nonzero"/></g><g fill="#000000" fill-opacity="1"><g transform="translate(97.006431, 117.19113)"><g><path d="M 23.4375 -14.476562 L 29.652344 -18.316406 L 3.460938 -39.457031 L -5.960938 -33.636719 L 1.21875 -0.753906 L 7.433594 -4.59375 L 5.972656 -11.320312 L 18.074219 -18.796875 Z M 4.699219 -17.101562 L 1.382812 -32.28125 L 13.472656 -22.523438 Z M 4.699219 -17.101562 "/></g></g></g><g fill="#000000" fill-opacity="1"><g transform="translate(125.232197, 99.251414)"><g><path d="M 16.6875 -4.574219 C 23.089844 -6.65625 25.246094 -10.671875 25.304688 -14.660156 L 27.195312 -8.847656 L 33.097656 -10.765625 L 27.871094 -26.839844 L 10.527344 -21.199219 L 11.988281 -16.703125 L 22.75 -20.203125 C 23.429688 -16.257812 22.40625 -12.460938 16.414062 -10.511719 C 10.328125 -8.53125 6.574219 -11.277344 4.359375 -18.085938 C 2.023438 -25.261719 3.898438 -29.535156 9.9375 -31.5 C 14.976562 -33.140625 18.121094 -31.800781 19.652344 -28.484375 L 26.644531 -30.757812 C 24.019531 -36.984375 18.304688 -40.195312 8.222656 -36.917969 C -3.171875 -33.210938 -5.742188 -24.59375 -2.875 -15.785156 C -0.0234375 -7.019531 6.742188 -1.339844 16.6875 -4.574219 Z M 16.6875 -4.574219 "/></g></g></g><g fill="#000000" fill-opacity="1"><g transform="translate(158.660112, 88.506187)"><g><path d="M 9.433594 -6.703125 L 8.699219 -14.402344 L 24.859375 -15.945312 L 24.347656 -21.316406 L 8.1875 -19.773438 L 7.511719 -26.855469 L 25.097656 -28.53125 L 24.554688 -34.234375 L -0.257812 -31.871094 L 2.757812 -0.261719 L 27.710938 -2.640625 L 27.160156 -8.394531 Z M 9.433594 -6.703125 "/></g></g></g><g fill="#000000" fill-opacity="1"><g transform="translate(186.177283, 85.280413)"><g><path d="M 30.144531 -28.355469 L 26.972656 -1.953125 C 26.644531 -3.628906 26.222656 -5.3125 25.8125 -6.707031 L 18.484375 -29.757812 L 6.535156 -31.195312 L 2.75 0.332031 L 9.671875 1.160156 L 12.835938 -25.195312 C 13.117188 -23.527344 13.539062 -21.839844 14.058594 -20.144531 L 21.332031 2.5625 L 33.277344 4 L 37.066406 -27.527344 Z M 30.144531 -28.355469 "/></g></g></g><g fill="#000000" fill-opacity="1"><g transform="translate(219.48998, 88.909922)"><g><path d="M 17.304688 7.300781 C 27.820312 11.210938 33.503906 8.535156 37.324219 0.175781 L 30.296875 -2.4375 C 28.210938 2.082031 25.023438 3.800781 19.296875 1.671875 C 13.34375 -0.539062 12.207031 -4.886719 14.652344 -11.464844 C 17.132812 -18.132812 21.007812 -20.613281 27.007812 -18.382812 C 32.511719 -16.335938 33.683594 -13.046875 32.453125 -8.511719 L 39.4375 -5.917969 C 41.792969 -14.3125 39.226562 -20.15625 28.980469 -23.964844 C 17.792969 -28.125 10.597656 -22.34375 7.539062 -14.109375 C 4.425781 -5.742188 6.117188 3.140625 17.304688 7.300781 Z M 17.304688 7.300781 "/></g></g></g><g fill="#000000" fill-opacity="1"><g transform="translate(251.64307, 100.951959)"><g><path d="M 11.558594 0.578125 L 15.75 -5.921875 L 29.390625 2.875 L 32.316406 -1.65625 L 18.671875 -10.457031 L 22.527344 -16.433594 L 37.375 -6.859375 L 40.480469 -11.675781 L 19.535156 -25.183594 L 2.328125 1.5 L 23.394531 15.085938 L 26.523438 10.230469 Z M 11.558594 0.578125 "/></g></g></g><g fill="#000000" fill-opacity="1"><g transform="translate(59.29965, 200.881619)"><g><path d="M 0.453125 2.40625 L 23.3125 -1.875 L 23.828125 0.875 L 3.15625 4.75 L 5.140625 15.390625 L 2.953125 15.796875 Z M 0.453125 2.40625 "/></g></g></g><g fill="#000000" fill-opacity="1"><g transform="translate(69.702536, 239.345311)"><g><path d="M 0.484375 0.875 L 25 -2.6875 L 26.40625 -0.09375 L 10.03125 18.5 L 8.625 15.90625 L 12.875 11.171875 L 8.171875 2.484375 L 1.875 3.453125 Z M 10.53125 2.140625 L 14.453125 9.390625 L 22.59375 0.296875 Z M 10.53125 2.140625 "/></g></g></g><g fill="#000000" fill-opacity="1"><g transform="translate(94.068374, 275.958712)"><g/></g></g><g fill="#000000" fill-opacity="1"><g transform="translate(117.172065, 296.595114)"><g><path d="M 10.828125 6.5625 C 8.835938 5.4375 7.367188 4.03125 6.421875 2.34375 C 5.484375 0.65625 5.0625 -1.191406 5.15625 -3.203125 C 5.25 -5.222656 5.878906 -7.28125 7.046875 -9.375 C 8.203125 -11.4375 9.617188 -13.03125 11.296875 -14.15625 C 12.972656 -15.289062 14.78125 -15.894531 16.71875 -15.96875 C 18.65625 -16.050781 20.617188 -15.53125 22.609375 -14.40625 C 24.929688 -13.101562 26.503906 -11.488281 27.328125 -9.5625 C 28.160156 -7.632812 28.222656 -5.566406 27.515625 -3.359375 L 24.828125 -4.859375 C 25.222656 -6.296875 25.15625 -7.660156 24.625 -8.953125 C 24.09375 -10.253906 23.019531 -11.359375 21.40625 -12.265625 C 19.957031 -13.085938 18.503906 -13.46875 17.046875 -13.40625 C 15.585938 -13.34375 14.21875 -12.851562 12.9375 -11.9375 C 11.65625 -11.019531 10.523438 -9.695312 9.546875 -7.96875 C 8.578125 -6.226562 8.03125 -4.566406 7.90625 -2.984375 C 7.789062 -1.410156 8.085938 0.00390625 8.796875 1.265625 C 9.515625 2.535156 10.597656 3.582031 12.046875 4.40625 C 13.660156 5.3125 15.148438 5.660156 16.515625 5.453125 C 17.890625 5.253906 19.082031 4.625 20.09375 3.5625 L 22.78125 5.0625 C 21.28125 6.789062 19.492188 7.796875 17.421875 8.078125 C 15.347656 8.367188 13.148438 7.863281 10.828125 6.5625 Z M 10.828125 6.5625 "/></g></g></g><g fill="#000000" fill-opacity="1"><g transform="translate(159.571039, 315.826776)"><g><path d="M 0.984375 0.171875 L 13.4375 -21.25 L 16.34375 -20.75 L 20.734375 3.640625 L 17.828125 3.125 L 16.765625 -3.125 L 7.015625 -4.84375 L 3.859375 0.671875 Z M 8.21875 -6.921875 L 16.328125 -5.484375 L 14.265625 -17.515625 Z M 8.21875 -6.921875 "/></g></g></g><g fill="#000000" fill-opacity="1"><g transform="translate(203.882927, 319.736827)"><g><path d="M 2.421875 -0.359375 L -0.953125 -23.359375 L 6.609375 -24.46875 C 8.398438 -24.726562 9.921875 -24.644531 11.171875 -24.21875 C 12.429688 -23.800781 13.414062 -23.128906 14.125 -22.203125 C 14.832031 -21.273438 15.273438 -20.175781 15.453125 -18.90625 C 15.640625 -17.65625 15.53125 -16.484375 15.125 -15.390625 C 14.726562 -14.304688 13.988281 -13.378906 12.90625 -12.609375 C 11.832031 -11.835938 10.390625 -11.320312 8.578125 -11.0625 L 3.78125 -10.359375 L 5.1875 -0.765625 Z M 3.4375 -12.6875 L 8.171875 -13.375 C 10.003906 -13.644531 11.253906 -14.222656 11.921875 -15.109375 C 12.585938 -16.003906 12.820312 -17.132812 12.625 -18.5 C 12.425781 -19.875 11.878906 -20.894531 10.984375 -21.5625 C 10.085938 -22.226562 8.722656 -22.425781 6.890625 -22.15625 L 2.15625 -21.46875 Z M 3.4375 -12.6875 "/></g></g></g><g fill="#000000" fill-opacity="1"><g transform="translate(244.362613, 310.331586)"><g><path d="M 9.03125 -3.953125 C 7.507812 -3.210938 6.039062 -2.84375 4.625 -2.84375 C 3.21875 -2.851562 1.96875 -3.203125 0.875 -3.890625 C -0.21875 -4.585938 -1.082031 -5.59375 -1.71875 -6.90625 L 0.90625 -8.1875 C 1.300781 -7.375 1.851562 -6.71875 2.5625 -6.21875 C 3.269531 -5.71875 4.082031 -5.4375 5 -5.375 C 5.925781 -5.3125 6.925781 -5.539062 8 -6.0625 C 9.414062 -6.75 10.347656 -7.625 10.796875 -8.6875 C 11.242188 -9.75 11.222656 -10.785156 10.734375 -11.796875 C 10.316406 -12.640625 9.804688 -13.222656 9.203125 -13.546875 C 8.597656 -13.878906 7.914062 -14.054688 7.15625 -14.078125 C 6.394531 -14.109375 5.5625 -14.050781 4.65625 -13.90625 C 3.757812 -13.757812 2.804688 -13.628906 1.796875 -13.515625 C -0.078125 -13.285156 -1.601562 -13.394531 -2.78125 -13.84375 C -3.957031 -14.289062 -4.875 -15.179688 -5.53125 -16.515625 C -6.09375 -17.617188 -6.316406 -18.734375 -6.203125 -19.859375 C -6.085938 -20.984375 -5.648438 -22.03125 -4.890625 -23 C -4.140625 -23.96875 -3.09375 -24.78125 -1.75 -25.4375 C -0.414062 -26.082031 0.863281 -26.394531 2.09375 -26.375 C 3.320312 -26.363281 4.421875 -26.054688 5.390625 -25.453125 C 6.367188 -24.847656 7.140625 -23.988281 7.703125 -22.875 L 5.078125 -21.609375 C 4.796875 -22.179688 4.363281 -22.675781 3.78125 -23.09375 C 3.207031 -23.519531 2.53125 -23.765625 1.75 -23.828125 C 0.96875 -23.890625 0.125 -23.695312 -0.78125 -23.25 C -1.925781 -22.71875 -2.71875 -21.972656 -3.15625 -21.015625 C -3.601562 -20.066406 -3.566406 -19.066406 -3.046875 -18.015625 C -2.609375 -17.117188 -2.015625 -16.554688 -1.265625 -16.328125 C -0.523438 -16.097656 0.367188 -16.050781 1.421875 -16.1875 C 2.484375 -16.320312 3.710938 -16.484375 5.109375 -16.671875 C 6.273438 -16.796875 7.367188 -16.8125 8.390625 -16.71875 C 9.421875 -16.632812 10.347656 -16.320312 11.171875 -15.78125 C 11.992188 -15.238281 12.691406 -14.382812 13.265625 -13.21875 C 13.742188 -12.21875 13.9375 -11.148438 13.84375 -10.015625 C 13.757812 -8.878906 13.328125 -7.773438 12.546875 -6.703125 C 11.773438 -5.640625 10.601562 -4.722656 9.03125 -3.953125 Z M 9.03125 -3.953125 "/></g></g></g><g fill="#000000" fill-opacity="1"><g transform="translate(280.219793, 289.127341)"><g><path d="M 8.0625 -7.265625 C 6.925781 -6.160156 5.671875 -5.382812 4.296875 -4.9375 C 2.921875 -4.488281 1.492188 -4.472656 0.015625 -4.890625 C -1.460938 -5.304688 -2.914062 -6.25 -4.34375 -7.71875 L -14.578125 -18.25 L -12.578125 -20.1875 L -2.3125 -9.640625 C -0.738281 -8.015625 0.785156 -7.210938 2.265625 -7.234375 C 3.753906 -7.265625 5.125 -7.890625 6.375 -9.109375 C 7.632812 -10.328125 8.289062 -11.671875 8.34375 -13.140625 C 8.394531 -14.609375 7.632812 -16.15625 6.0625 -17.78125 L -4.203125 -28.328125 L -2.1875 -30.28125 L 8.046875 -19.75 C 9.472656 -18.28125 10.367188 -16.796875 10.734375 -15.296875 C 11.109375 -13.804688 11.046875 -12.375 10.546875 -11 C 10.054688 -9.632812 9.226562 -8.390625 8.0625 -7.265625 Z M 8.0625 -7.265625 "/></g></g></g><g fill="#000000" fill-opacity="1"><g transform="translate(309.087496, 255.76523)"><g><path d="M 1.15625 -2.171875 L -19.375 -13.09375 L -18.0625 -15.5625 L 0.515625 -5.6875 L 5.59375 -15.234375 L 7.546875 -14.1875 Z M 1.15625 -2.171875 "/></g></g></g><g fill="#000000" fill-opacity="1"><g transform="translate(324.810789, 219.336716)"><g><path d="M 0.46875 -2.40625 L -22.359375 -6.8125 L -19.640625 -20.9375 L -17.390625 -20.5 L -19.578125 -9.125 L -11.609375 -7.59375 L -9.609375 -18 L -7.40625 -17.5625 L -9.40625 -7.15625 L -1.25 -5.59375 L 0.9375 -16.96875 L 3.1875 -16.53125 Z M 0.46875 -2.40625 "/></g></g></g><g clip-path="url(#bb6f204edd)"><path fill="#000000" d="M 315.636719 165.507812 C 314.574219 174.464844 313.714844 175.324219 304.761719 176.382812 C 304.777344 176.386719 304.796875 176.390625 304.816406 176.390625 C 313.71875 177.449219 314.578125 178.320312 315.636719 187.257812 C 316.695312 178.304688 317.554688 177.445312 326.511719 176.382812 C 317.554688 175.324219 316.695312 174.464844 315.636719 165.507812 Z M 315.636719 165.507812 " fill-opacity="1" fill-rule="nonzero"/></g></svg>