<svg xmlns="http://www.w3.org/2000/svg" xmlns:xlink="http://www.w3.org/1999/xlink" width="50" zoomAndPan="magnify" viewBox="0 0 37.5 30.000001" height="40" preserveAspectRatio="xMidYMid meet" version="1.0"><defs><clipPath id="b9421b04e1"><path d="M 1.667969 9 L 36.652344 9 L 36.652344 23.878906 L 1.667969 23.878906 Z M 1.667969 9 " clip-rule="nonzero"/></clipPath><clipPath id="d03cf91fac"><path d="M 30 7.699219 L 36.652344 7.699219 L 36.652344 14 L 30 14 Z M 30 7.699219 " clip-rule="nonzero"/></clipPath></defs><g clip-path="url(#b9421b04e1)"><path fill="#000000" d="M 2.296875 23.878906 L 2.40625 23.65625 C 3.574219 20.851562 4.847656 18.757812 6.230469 17.378906 C 8.003906 15.597656 10.039062 14.324219 12.328125 13.558594 C 16.199219 12.242188 19.3125 12.765625 21.671875 15.132812 C 22.8125 16.492188 23.285156 18.039062 23.09375 19.777344 C 22.746094 21.402344 21.898438 22.28125 20.554688 22.414062 C 19.828125 22.464844 19.234375 22.097656 18.773438 21.316406 C 18.234375 20.261719 18.023438 19.242188 18.136719 18.261719 C 18.511719 16.519531 19.859375 14.878906 22.171875 13.332031 C 23.886719 12.1875 25.695312 11.496094 27.597656 11.261719 C 28.589844 11.140625 29.699219 11.152344 30.925781 11.285156 L 32.558594 11.539062 L 35.429688 12.148438 L 36.050781 12.246094 C 36.273438 12.265625 36.476562 12.109375 36.65625 11.785156 C 36.734375 11.4375 36.699219 11.234375 36.554688 11.167969 C 35.984375 10.914062 35.242188 10.675781 34.324219 10.460938 C 32.527344 10.070312 30.578125 9.925781 28.484375 10.03125 C 26.050781 10.074219 23.558594 10.992188 20.996094 12.777344 C 18.476562 14.664062 17.140625 16.609375 16.988281 18.617188 C 17.0625 20.082031 17.417969 21.273438 18.058594 22.1875 C 18.703125 23.085938 19.558594 23.519531 20.625 23.492188 C 22.433594 23.261719 23.59375 22.199219 24.097656 20.308594 C 24.449219 18.234375 23.976562 16.332031 22.675781 14.605469 C 21.363281 13.175781 19.820312 12.285156 18.042969 11.933594 C 15.941406 11.578125 13.804688 11.800781 11.632812 12.59375 C 8.46875 13.851562 6.003906 15.609375 4.246094 17.871094 C 3.0625 19.386719 2.257812 20.664062 1.835938 21.695312 C 1.722656 21.910156 1.671875 22.230469 1.671875 22.664062 C 1.699219 22.808594 1.75 22.921875 1.820312 23.003906 L 2.324219 23.53125 C 2.355469 23.617188 2.347656 23.734375 2.296875 23.878906 " fill-opacity="1" fill-rule="nonzero"/></g><g clip-path="url(#d03cf91fac)"><path fill="#000000" d="M 36.433594 10.921875 C 36.453125 10.925781 36.46875 10.933594 36.484375 10.9375 C 36.46875 10.929688 36.449219 10.925781 36.433594 10.921875 Z M 36.042969 11.402344 C 36.027344 11.453125 36.023438 11.503906 36.023438 11.554688 C 36.019531 11.496094 36.027344 11.445312 36.042969 11.402344 Z M 31.039062 7.699219 C 30.894531 7.699219 30.753906 7.765625 30.664062 7.894531 C 30.523438 8.101562 30.574219 8.386719 30.777344 8.53125 C 30.96875 8.664062 31.171875 8.796875 31.390625 8.921875 C 31.394531 8.925781 31.402344 8.929688 31.40625 8.933594 C 32.804688 9.664062 33.566406 10.078125 33.695312 10.171875 C 33.703125 10.179688 33.710938 10.183594 33.71875 10.1875 C 34.574219 10.765625 35.199219 11.183594 35.59375 11.445312 L 35.589844 11.445312 C 34.886719 11.617188 33.265625 12.066406 30.726562 12.789062 C 30.484375 12.859375 30.347656 13.109375 30.414062 13.351562 C 30.46875 13.554688 30.648438 13.6875 30.84375 13.6875 C 30.886719 13.6875 30.929688 13.679688 30.96875 13.667969 C 34.0625 12.785156 35.765625 12.320312 36.074219 12.269531 C 36.09375 12.269531 36.109375 12.265625 36.128906 12.257812 C 36.351562 12.195312 36.519531 12.125 36.632812 12.046875 C 36.8125 11.929688 36.90625 11.785156 36.921875 11.609375 C 36.953125 11.441406 36.894531 11.28125 36.742188 11.128906 C 36.695312 11.082031 36.636719 11.035156 36.5625 10.984375 C 36.539062 10.96875 36.519531 10.957031 36.496094 10.945312 C 36.359375 10.863281 35.601562 10.359375 34.230469 9.4375 C 34.226562 9.433594 34.222656 9.429688 34.214844 9.425781 C 34.050781 9.308594 33.257812 8.875 31.832031 8.125 C 31.636719 8.011719 31.457031 7.898438 31.292969 7.78125 C 31.214844 7.726562 31.125 7.699219 31.039062 7.699219 Z M 31.039062 7.699219 " fill-opacity="1" fill-rule="nonzero"/></g></svg>